<?xml version="1.0" encoding="utf-8"?>
<!-- Generator: Adobe Illustrator 14.0.0, SVG Export Plug-In . SVG Version: 6.00 Build 43363)  -->
<!DOCTYPE svg PUBLIC "-//W3C//DTD SVG 1.1//EN" "http://www.w3.org/Graphics/SVG/1.1/DTD/svg11.dtd">
<svg version="1.1" id="Layer_1" xmlns="http://www.w3.org/2000/svg" xmlns:xlink="http://www.w3.org/1999/xlink" x="0px" y="0px"
	 width="335.935px" height="281.333px" viewBox="0 0 335.935 281.333" enable-background="new 0 0 335.935 281.333"
	 xml:space="preserve">
<g>
	<path fill="#A0CECB" d="M327.632,98.28c-1.199-0.43-2.235-0.455-2.921-0.472c-0.535-0.013-1.43-0.035-1.906-0.375
		c-0.634-0.452-1.393-2.197-1.455-5.632c-0.095-5.13-3.755-9.436-8.716-10.265c-1.498-0.274-14.221-3.127-14.809-20.812
		c-0.131-4.06-2.619-7.677-6.358-9.263c-0.838-0.415-2.684-1.69-2.684-4.865c0-5.049-3.605-9.369-8.572-10.271l-27.803-5.054
		c-1.106-0.695-2.647-1.632-4.592-2.742c-0.285-0.23-0.584-0.447-0.894-0.647c-22.995-14.783-48.327-22.271-75.319-22.271
		c-1.207,0-2.43,0.016-3.638,0.045c-1.207-0.03-2.431-0.045-3.638-0.045c-26.993,0-52.324,7.486-75.291,22.252
		c-0.318,0.204-0.626,0.426-0.922,0.666c-1.945,1.11-3.485,2.046-4.59,2.74l-27.803,5.055c-4.967,0.904-8.572,5.223-8.572,10.271
		c0,3.188-1.863,4.462-2.7,4.873c-3.715,1.584-6.205,5.207-6.341,9.253c-0.59,17.729-13.372,20.554-14.827,20.818
		c-4.883,0.814-8.469,4.954-8.691,10.062c-0.231,5.308-2.32,6.127-4.114,6.247c-0.353,0.024-1.18,0.08-2.199,0.439
		c-4.161,1.454-6.972,5.414-6.972,9.847v0.209v65.803v0.209c0,4.432,2.811,8.393,6.995,9.854c0.644,0.231,1.212,0.33,1.627,0.4
		c1.44,0.248,4.12,0.709,4.691,6.684c0.477,4.998,3.962,8.873,8.683,9.66c1.516,0.277,14.219,3.141,14.808,20.812
		c0.135,4.066,2.623,7.678,6.358,9.262c0.839,0.414,2.684,1.691,2.684,4.867c0,5.049,3.605,9.367,8.572,10.27l27.802,5.055
		c1.111,0.699,2.657,1.639,4.6,2.748c0.285,0.229,0.582,0.445,0.891,0.646c22.989,14.777,48.321,22.266,75.313,22.266
		c1.222,0,2.445-0.016,3.638-0.045c1.193,0.029,2.416,0.045,3.638,0.045c26.993,0,52.325-7.488,75.29-22.252
		c0.317-0.205,0.623-0.426,0.915-0.662c1.959-1.117,3.498-2.055,4.601-2.748l27.802-5.053c4.967-0.902,8.572-5.221,8.572-10.27
		c0-3.195,1.868-4.467,2.7-4.875c3.734-1.605,6.21-5.225,6.342-9.262c0.59-17.719,13.371-20.545,14.827-20.809
		c5.053-0.84,8.724-5.234,8.698-10.439c-0.005-1.082-0.021-4.379,5.783-6.14c0.269-0.081,0.459-0.146,0.562-0.183
		c4.148-1.484,6.935-5.435,6.935-9.832v-0.209v-65.803v-0.209C334.63,103.702,331.818,99.741,327.632,98.28z"/>
	<path fill="#96C6BD" d="M171.604,278.185c-1.232,0-2.467-0.016-3.669-0.045c-1.14,0.029-2.374,0.045-3.606,0.045
		c-27.246,0-52.822-7.561-76.019-22.475c-0.322-0.209-0.627-0.428-0.92-0.66c-1.546-0.883-3.005-1.754-4.345-2.592l-27.556-5.01
		c-5.588-1.016-9.644-5.875-9.644-11.553c0-2.375-1.227-3.336-1.958-3.697c-4.124-1.746-6.932-5.836-7.083-10.389
		c-0.556-16.676-12.391-19.324-13.739-19.572c-5.289-0.881-9.214-5.23-9.747-10.82c-0.476-4.98-2.363-5.307-3.613-5.52
		c-0.435-0.074-1.093-0.188-1.847-0.459C3.162,183.798,0,179.343,0,174.356v-66.221c0-4.986,3.153-9.439,7.848-11.079
		c1.187-0.418,2.171-0.485,2.542-0.509c0.939-0.063,2.687-0.181,2.897-5.002c0.249-5.73,4.271-10.373,9.78-11.292
		c1.331-0.241,13.182-2.869,13.738-19.574c0.153-4.542,2.953-8.627,7.134-10.41c0.673-0.332,1.907-1.292,1.907-3.672
		c0-5.679,4.056-10.539,9.643-11.555l27.557-5.01c1.326-0.828,2.782-1.696,4.334-2.583c0.307-0.244,0.626-0.472,0.954-0.683
		c23.178-14.901,48.746-22.458,75.991-22.458c0.002,0,0.002,0,0.004,0c1.218,0,2.452,0.015,3.67,0.046
		c1.153-0.031,2.388-0.046,3.605-0.046c27.246,0,52.825,7.562,76.025,22.477c0.321,0.208,0.629,0.429,0.923,0.663
		c1.545,0.883,3.001,1.751,4.337,2.585l27.556,5.01c5.588,1.016,9.644,5.875,9.644,11.555c0,2.373,1.227,3.333,1.958,3.695
		c4.13,1.75,6.938,5.841,7.083,10.391c0.556,16.681,12.392,19.324,13.739,19.57c5.557,0.928,9.681,5.776,9.786,11.524
		c0.056,3.101,0.707,4.4,0.931,4.611c0.182,0.092,0.916,0.11,1.157,0.116c0.729,0.018,1.937,0.049,3.331,0.548
		c4.697,1.64,7.861,6.096,7.861,11.083v66.221c0,4.947-3.134,9.392-7.799,11.061c-0.115,0.041-0.325,0.113-0.623,0.203
		c-4.874,1.477-4.861,3.953-4.857,4.885c0.028,5.85-4.088,10.783-9.789,11.732c-1.331,0.242-13.181,2.869-13.737,19.564
		c-0.147,4.527-2.945,8.619-7.129,10.418c-0.679,0.334-1.912,1.295-1.912,3.676c0,5.68-4.056,10.539-9.644,11.555l-27.555,5.008
		c-1.328,0.83-2.788,1.701-4.346,2.592c-0.302,0.238-0.616,0.463-0.941,0.674C224.419,270.628,198.851,278.185,171.604,278.185
		L171.604,278.185z M167.935,275.53c1.246,0.029,2.458,0.043,3.669,0.043c26.738,0,51.833-7.416,74.584-22.043
		c0.277-0.178,0.545-0.371,0.801-0.58c0.055-0.043,0.113-0.082,0.175-0.117c1.641-0.938,3.173-1.854,4.552-2.719
		c0.14-0.088,0.297-0.15,0.461-0.18l27.802-5.053c4.347-0.789,7.501-4.568,7.501-8.986c0-3.939,2.399-5.541,3.431-6.047
		c3.316-1.428,5.497-4.609,5.612-8.133c0.623-18.742,14.336-21.766,15.897-22.051c4.45-0.74,7.649-4.586,7.627-9.148
		c-0.017-3.553,2.24-6.039,6.709-7.395c0.24-0.072,0.409-0.129,0.501-0.162c3.63-1.299,6.068-4.757,6.068-8.604v-66.221
		c0-3.879-2.46-7.345-6.123-8.623c-1.008-0.362-1.88-0.383-2.517-0.399c-0.689-0.017-1.835-0.044-2.64-0.619
		c-1.209-0.863-1.939-3.294-2-6.67c-0.083-4.491-3.29-8.276-7.626-9.001c-1.579-0.289-15.274-3.33-15.897-22.055
		c-0.114-3.539-2.298-6.72-5.564-8.105c-1.095-0.539-3.479-2.142-3.479-6.066c0-4.417-3.154-8.197-7.501-8.987l-27.803-5.054
		c-0.164-0.03-0.32-0.09-0.461-0.179c-1.387-0.872-2.916-1.784-4.543-2.713c-0.062-0.035-0.12-0.075-0.175-0.119
		c-0.25-0.202-0.512-0.391-0.782-0.568c-22.77-14.636-47.873-22.06-74.61-22.06c-1.196,0-2.408,0.015-3.605,0.044
		c-1.261-0.029-2.474-0.044-3.67-0.044c-26.738,0-51.833,7.416-74.584,22.045c-0.279,0.179-0.548,0.373-0.807,0.582
		c-0.055,0.044-0.113,0.084-0.175,0.12c-1.638,0.935-3.166,1.847-4.543,2.712c-0.141,0.088-0.297,0.149-0.461,0.179l-27.803,5.055
		c-4.345,0.791-7.5,4.57-7.5,8.987c0,3.938-2.4,5.539-3.431,6.044c-3.314,1.415-5.492,4.593-5.611,8.125
		c-0.625,18.751-14.337,21.775-15.898,22.058c-4.299,0.717-7.425,4.349-7.621,8.834c-0.209,4.815-1.953,7.266-5.33,7.492
		c-0.299,0.021-0.999,0.067-1.853,0.368c-3.651,1.276-6.102,4.738-6.102,8.617v66.221c0,3.877,2.459,7.344,6.12,8.621
		c0.549,0.198,1.031,0.281,1.418,0.348c1.526,0.261,5.103,0.875,5.769,7.844c0.418,4.395,3.473,7.811,7.598,8.498
		c1.58,0.289,15.274,3.338,15.897,22.055c0.118,3.541,2.301,6.723,5.563,8.104c1.095,0.541,3.479,2.145,3.479,6.07
		c0,4.416,3.155,8.195,7.501,8.986l27.802,5.055c0.164,0.029,0.32,0.09,0.461,0.178c1.392,0.875,2.923,1.791,4.551,2.721
		c0.061,0.033,0.118,0.072,0.171,0.115c0.251,0.203,0.514,0.393,0.786,0.57c22.762,14.633,47.863,22.053,74.601,22.053
		C165.54,275.573,166.752,275.56,167.935,275.53L167.935,275.53z"/>
</g>
<path fill="#3D3D3C" d="M325.052,105.672c-0.655-0.234-11.258,1.32-11.53-13.729c-0.024-1.324-0.888-2.477-2.195-2.687
	c-0.828-0.138-20.509-3.703-21.327-28.271c-0.033-1.035-0.678-1.951-1.639-2.336c-0.288-0.12-7.406-3.177-7.406-12.053
	c0-1.262-0.902-2.342-2.144-2.568l-29.326-5.331c-0.899-0.591-3.046-1.962-6.282-3.783c-0.155-0.177-0.339-0.334-0.54-0.464
	c-21.685-13.94-45.592-21.008-71.059-21.008c-1.203,0-2.426,0.016-3.638,0.048c-1.212-0.032-2.436-0.048-3.638-0.048
	c-25.467-0.001-49.374,7.067-71.056,21.008c-0.204,0.13-0.385,0.287-0.542,0.464c-3.235,1.821-5.382,3.192-6.283,3.783
	l-29.325,5.331c-1.241,0.226-2.143,1.306-2.143,2.568c0,8.876-7.119,11.933-7.422,12.059c-0.945,0.392-1.589,1.307-1.624,2.33
	c-0.819,24.568-20.498,28.133-21.336,28.273c-1.298,0.217-2.129,1.369-2.186,2.685c-0.598,13.744-11.367,13.672-11.53,13.729
	c-1.047,0.366-1.748,1.355-1.748,2.463v0.209v65.803v0.209c0,1.108,0.701,2.098,1.748,2.463c0.656,0.234,10.279,0.64,11.53,13.73
	c0.125,1.316,0.888,2.475,2.195,2.684c0.829,0.141,20.508,3.705,21.327,28.271c0.035,1.035,0.678,1.951,1.64,2.336
	c0.287,0.119,7.406,3.176,7.406,12.055c0,1.26,0.902,2.342,2.143,2.566l29.324,5.332c0.901,0.59,3.049,1.963,6.285,3.785
	c0.156,0.176,0.337,0.332,0.54,0.463c21.684,13.939,45.59,21.008,71.056,21.008c1.202,0,2.426-0.016,3.638-0.047
	c1.212,0.031,2.435,0.047,3.638,0.047c25.467,0,49.374-7.068,71.056-21.008c0.204-0.131,0.385-0.287,0.54-0.463
	c3.237-1.822,5.386-3.193,6.285-3.785l29.326-5.332c1.241-0.225,2.144-1.307,2.144-2.566c0-8.879,7.118-11.936,7.421-12.061
	c0.946-0.393,1.591-1.307,1.624-2.33c0.818-24.566,20.499-28.131,21.335-28.271c1.3-0.217,2.193-1.367,2.188-2.684
	c-0.054-10.807,10.875-13.496,11.538-13.732c1.039-0.373,1.74-1.359,1.74-2.461v-0.209v-65.803v-0.209
	C326.8,107.027,326.099,106.038,325.052,105.672z"/>
<path fill="#141414" d="M145.353,52.833"/>
<path fill="#A0A4A4" d="M82.846,85.262c0,0,77.663,45.404,174.401,0l-6.13,26.063c0,0-72.601,37.391-158.734,0L82.846,85.262z"/>
<path opacity="0.1" fill="#141414" d="M257.248,80.358c0,0-9.538-9.793-21.119-8.012L125.473,92.801l-26.18-23.065
	c-11.581-1.781-21.119,8.012-21.119,8.012c-8.856,11.573,6.617,12.434,6.617,12.434c0.276,5.171,7.142,7.166,11.946,7.931
	l-0.265,0.049c0.094-0.018,0.174-0.032,0.265-0.049c1.258,0.2,2.373,0.317,3.192,0.384c0.768,0.88,10.766,12.003,19.488,4.65
	c0,0,11.933,13.896,30.259,5.347c0,0,16.964,10.127,27.182,0.789c0,0,16.182,10.302,30.233-3.524c0,0,17.078,4.753,23.061-5.871
	c0,0,18.748,0.888,19.174-7.096C249.326,92.792,266.104,91.932,257.248,80.358z"/>
<path fill="#E6CF93" d="M257.248,76.358c0,0-9.538-9.793-21.119-8.012L125.473,88.801l-26.18-23.065
	c-11.581-1.781-21.119,8.012-21.119,8.012c-8.856,11.573,6.617,12.434,6.617,12.434c0.276,5.171,7.142,7.166,11.946,7.931
	l-0.265,0.049c0.094-0.018,0.174-0.032,0.265-0.049c1.258,0.2,2.373,0.317,3.192,0.384c0.768,0.88,10.766,12.003,19.488,4.65
	c0,0,11.933,13.896,30.259,5.347c0,0,16.964,10.127,27.182,0.789c0,0,16.182,10.302,30.233-3.524c0,0,17.078,4.753,23.061-5.871
	c0,0,18.748,0.888,19.174-7.096C249.326,88.792,266.104,87.932,257.248,76.358z"/>
<path fill="#D4BE89" d="M251.092,79.919C182.097-1.042,102.976,60.165,88.165,72.906c-0.012,0.009-4.135,2.839-2.912,4.163h0.012
	c0.674,1.306,4.561,1.5,4.561,1.5c-2.99,9.765,8.29,9.782,13.904,9.223c3.988,9.32,13.367,6.645,17.767,4.75
	c0.185,0.042,0.367,0.086,0.551,0.127l-0.034-0.002c9.678,10.327,22.453,7.351,29.172,4.686c10.372,7.681,20.568,3.531,25.743,0.351
	c14.554,7.936,25.556-0.432,29.109-3.778c13.45,7.059,22.562-4.341,22.562-4.341l-0.001,0c0.14-0.035,0.274-0.07,0.412-0.105
	l0.001,0c12.33,3.72,16.762-5.258,17.135-6.072C248.481,83.524,254.246,83.488,251.092,79.919z"/>
<path fill="#A59060" d="M173.925,61.586l0.027-0.001c0,0-3.61-7.008-3.949-10.881c0,0-3.604,9.019-5.676,11.156l0.059-0.002
	c-0.32,0.474-0.513,0.997-0.51,1.552c0.012,2.029,2.426,3.661,5.396,3.645c2.968-0.016,5.366-1.673,5.354-3.702
	C174.624,62.708,174.356,62.111,173.925,61.586z"/>
<path fill="#A59060" d="M206.384,54.867c-0.176-0.695-0.814-1.202-1.705-1.497l-13.373-5.46c4.654,4.469,4.789,8.923,4.789,8.923
	c0.006,0.003,0.012,0.005,0.019,0.008c-0.026,0.208-0.02,0.415,0.031,0.616c0.391,1.546,3,2.221,5.828,1.506
	C204.8,58.247,206.775,56.414,206.384,54.867z"/>
<path fill="#A59060" d="M133.365,54.867c0.176-0.695,0.814-1.202,1.705-1.497l13.373-5.46c-4.654,4.469-4.789,8.923-4.789,8.923
	c-0.006,0.003-0.012,0.005-0.019,0.008c0.026,0.208,0.02,0.415-0.031,0.616c-0.391,1.546-3,2.221-5.828,1.506
	C134.949,58.247,132.974,56.414,133.365,54.867z"/>
<polygon fill="#EB3730" points="306.222,208.666 330.8,208.666 323.497,225.057 330.8,241 306.222,241 "/>
<polygon opacity="0.06" fill="#4C1413" points="306.222,208.666 330.8,208.666 323.497,225.057 330.8,241 306.222,241 "/>
<polyline fill="#A92626" points="314.103,237.423 306.222,241 306.222,237.423 314.103,237.423 "/>
<polygon fill="#EB3730" points="30.8,208.666 6.222,208.666 13.526,225.057 6.222,241 30.8,241 "/>
<polygon opacity="0.06" fill="#4C1413" points="30.8,208.666 6.222,208.666 13.526,225.057 6.222,241 30.8,241 "/>
<polyline fill="#A92626" points="22.919,237.423 30.8,241 30.8,237.423 22.919,237.423 "/>
<polygon fill="#EB3730" points="314.603,220.833 314.603,237.423 22.539,237.423 22.539,220.333 22.539,204.146 314.603,204.146 "/>
<g>
	<path fill="#EDE6D6" d="M58.333,221.76H51.84c0.14,1.803,1.453,2.748,2.905,2.748c1.295,0,2.188-0.63,2.678-1.365l0.857,0.718
		c-0.735,0.963-1.68,1.732-3.535,1.732c-2.485,0-4.096-1.872-4.096-4.183s1.575-4.183,3.956-4.183c2.468,0,3.728,1.854,3.728,3.92
		V221.76z M51.857,220.832h5.25c-0.175-1.54-1.015-2.555-2.503-2.555C53.222,218.277,52.067,219.17,51.857,220.832z"/>
	<path fill="#EDE6D6" d="M67.31,225.418c-0.91,0-1.505-0.561-1.61-1.383c-0.56,0.771-1.523,1.558-3.238,1.558
		c-3.71,0-3.763-4.62,0.035-5.005c1.47-0.141,2.73,0.14,3.203,0.279v-0.542c0-1.261-0.875-2.065-2.223-2.065
		c-0.77,0-1.68,0.367-2.188,1.103l-0.928-0.718c0,0,0.963-1.505,3.116-1.505c2.083,0,3.343,1.26,3.343,3.186v3.465
		c0,0.298,0.192,0.49,0.49,0.49h0.158v1.138H67.31z M65.7,221.795c-0.385-0.087-1.768-0.35-3.081-0.21
		c-2.17,0.245-2.485,2.94,0,2.94C64.772,224.525,65.647,222.88,65.7,221.795z"/>
	<path fill="#EDE6D6" d="M69.917,225.418v-6.931h-1.4v-1.05h1.4v-3.396h1.225v3.396h1.4v1.05h-1.4v6.931H69.917z"/>
	<path fill="#EDE6D6" d="M79.542,229.793v-12.355h1.155v0.524c0,0.228-0.018,0.455-0.035,0.665c0.578-0.805,1.488-1.365,2.608-1.365
		c2.013,0,3.623,1.506,3.623,4.131s-1.61,4.2-3.623,4.2c-1.12,0-2.03-0.542-2.608-1.348c0.018,0.298,0.035,0.683,0.035,1.173v4.375
		H79.542z M83.165,224.561c1.33,0,2.555-1.277,2.555-3.168s-1.225-3.098-2.555-3.098c-1.575,0-2.468,1.225-2.468,3.133
		C80.697,223.335,81.589,224.561,83.165,224.561z"/>
	<path fill="#EDE6D6" d="M89.534,214.392c0.542,0,0.998,0.455,0.998,0.998c0,0.542-0.455,0.997-0.998,0.997
		c-0.543,0-0.998-0.455-0.998-0.997C88.537,214.847,88.991,214.392,89.534,214.392z M88.921,225.418v-7.98h1.225v7.98H88.921z"/>
	<path fill="#EDE6D6" d="M99.684,221.76h-6.493c0.14,1.803,1.452,2.748,2.905,2.748c1.295,0,2.188-0.63,2.678-1.365l0.857,0.718
		c-0.735,0.963-1.68,1.732-3.535,1.732c-2.485,0-4.096-1.872-4.096-4.183s1.575-4.183,3.956-4.183c2.468,0,3.728,1.854,3.728,3.92
		V221.76z M93.208,220.832h5.25c-0.175-1.54-1.015-2.555-2.502-2.555C94.574,218.277,93.418,219.17,93.208,220.832z"/>
	<path fill="#EDE6D6" d="M102.431,223.598c0.542,0,0.997,0.455,0.997,0.998c0,0.542-0.455,0.997-0.997,0.997
		c-0.543,0-0.998-0.455-0.998-0.997C101.433,224.053,101.888,223.598,102.431,223.598z"/>
	<path fill="#EDE6D6" d="M111.024,225.418v-13.126h1.154v5.67c0,0.28-0.018,0.543-0.052,0.806c0.56-0.963,1.452-1.506,2.625-1.506
		c2.013,0,3.623,1.506,3.623,4.131s-1.61,4.2-3.623,4.2c-1.155,0-2.048-0.542-2.607-1.47c0.017,0.314,0.034,0.734,0.034,1.295
		H111.024z M117.202,221.393c0-1.891-1.226-3.098-2.556-3.098c-1.575,0-2.468,1.225-2.468,3.133c0,1.907,0.893,3.133,2.468,3.133
		C115.976,224.561,117.202,223.283,117.202,221.393z"/>
	<path fill="#EDE6D6" d="M127.526,221.76h-6.493c0.14,1.803,1.452,2.748,2.905,2.748c1.295,0,2.188-0.63,2.678-1.365l0.857,0.718
		c-0.735,0.963-1.68,1.732-3.535,1.732c-2.485,0-4.096-1.872-4.096-4.183s1.575-4.183,3.956-4.183c2.468,0,3.728,1.854,3.728,3.92
		V221.76z M121.05,220.832h5.25c-0.175-1.54-1.015-2.555-2.502-2.555C122.416,218.277,121.26,219.17,121.05,220.832z"/>
	<path fill="#EDE6D6" d="M135.785,225.418h-1.154v-13.126h1.154v5.67c0,0.263-0.018,0.508-0.034,0.753
		c0.595-0.857,1.592-1.453,2.747-1.453c2.013,0,3.308,1.226,3.308,3.676v4.48h-1.172v-4.48c0-1.768-0.91-2.643-2.24-2.643
		c-1.54,0-2.556,1.173-2.608,2.555V225.418z"/>
	<path fill="#EDE6D6" d="M151.378,225.418c-0.91,0-1.506-0.561-1.61-1.383c-0.561,0.771-1.522,1.558-3.238,1.558
		c-3.71,0-3.763-4.62,0.035-5.005c1.471-0.141,2.73,0.14,3.203,0.279v-0.542c0-1.261-0.875-2.065-2.223-2.065
		c-0.771,0-1.681,0.367-2.188,1.103l-0.928-0.718c0,0,0.962-1.505,3.115-1.505c2.083,0,3.343,1.26,3.343,3.186v3.465
		c0,0.298,0.192,0.49,0.49,0.49h0.157v1.138H151.378z M149.768,221.795c-0.385-0.087-1.768-0.35-3.08-0.21
		c-2.171,0.245-2.485,2.94,0,2.94C148.84,224.525,149.715,222.88,149.768,221.795z"/>
	<path fill="#EDE6D6" d="M153.285,229.793v-12.355h1.154v0.524c0,0.228-0.018,0.455-0.034,0.665
		c0.577-0.805,1.487-1.365,2.607-1.365c2.013,0,3.623,1.506,3.623,4.131s-1.61,4.2-3.623,4.2c-1.12,0-2.03-0.542-2.607-1.348
		c0.017,0.298,0.034,0.683,0.034,1.173v4.375H153.285z M156.907,224.561c1.33,0,2.556-1.277,2.556-3.168s-1.226-3.098-2.556-3.098
		c-1.575,0-2.468,1.225-2.468,3.133C154.439,223.335,155.332,224.561,156.907,224.561z"/>
	<path fill="#EDE6D6" d="M162.665,229.793v-12.355h1.154v0.524c0,0.228-0.018,0.455-0.034,0.665
		c0.577-0.805,1.487-1.365,2.607-1.365c2.013,0,3.623,1.506,3.623,4.131s-1.61,4.2-3.623,4.2c-1.12,0-2.03-0.542-2.607-1.348
		c0.017,0.298,0.034,0.683,0.034,1.173v4.375H162.665z M166.287,224.561c1.33,0,2.556-1.277,2.556-3.168s-1.226-3.098-2.556-3.098
		c-1.575,0-2.468,1.225-2.468,3.133C163.819,223.335,164.711,224.561,166.287,224.561z"/>
	<path fill="#EDE6D6" d="M172.044,230.599l2.38-5.373l-3.221-7.788h1.312l2.573,6.248l2.766-6.248h1.33l-0.508,1.189l-3.028,6.791
		l-2.292,5.181H172.044z"/>
	<path fill="#EDE6D6" d="M180.672,223.598c0.542,0,0.997,0.455,0.997,0.998c0,0.542-0.455,0.997-0.997,0.997
		c-0.543,0-0.998-0.455-0.998-0.997C179.674,224.053,180.129,223.598,180.672,223.598z"/>
	<path fill="#EDE6D6" d="M196.352,221.76h-6.493c0.14,1.803,1.452,2.748,2.905,2.748c1.295,0,2.188-0.63,2.678-1.365l0.857,0.718
		c-0.735,0.963-1.68,1.732-3.535,1.732c-2.485,0-4.096-1.872-4.096-4.183s1.575-4.183,3.956-4.183c2.468,0,3.728,1.854,3.728,3.92
		V221.76z M189.876,220.832h5.25c-0.175-1.54-1.015-2.555-2.502-2.555C191.242,218.277,190.086,219.17,189.876,220.832z"/>
	<path fill="#EDE6D6" d="M205.33,225.418c-0.91,0-1.506-0.561-1.61-1.383c-0.561,0.771-1.522,1.558-3.238,1.558
		c-3.71,0-3.763-4.62,0.035-5.005c1.471-0.141,2.73,0.14,3.203,0.279v-0.542c0-1.261-0.875-2.065-2.223-2.065
		c-0.771,0-1.681,0.367-2.188,1.103l-0.928-0.718c0,0,0.962-1.505,3.115-1.505c2.083,0,3.343,1.26,3.343,3.186v3.465
		c0,0.298,0.192,0.49,0.49,0.49h0.157v1.138H205.33z M203.719,221.795c-0.385-0.087-1.768-0.35-3.08-0.21
		c-2.171,0.245-2.485,2.94,0,2.94C202.792,224.525,203.667,222.88,203.719,221.795z"/>
	<path fill="#EDE6D6" d="M207.936,225.418v-6.931h-1.399v-1.05h1.399v-3.396h1.226v3.396h1.4v1.05h-1.4v6.931H207.936z"/>
	<path fill="#EDE6D6" d="M228.657,225.418h-1.173v-5.216c0-1.05-0.455-1.907-1.697-1.907c-1.173,0-2.065,0.963-2.101,2.503v4.62
		h-1.173v-5.216c0-1.05-0.455-1.907-1.697-1.907c-1.173,0-2.065,0.963-2.101,2.503v4.62h-1.154v-7.98h1.154v0.524
		c0,0.21-0.018,0.386-0.034,0.578c0.56-0.823,1.417-1.278,2.38-1.278c1.067,0,1.96,0.473,2.362,1.506
		c0.508-0.98,1.4-1.506,2.538-1.506c1.487,0,2.695,0.91,2.695,2.958V225.418z"/>
	<path fill="#EDE6D6" d="M230.581,221.41c0-2.311,1.803-4.183,4.043-4.183s4.043,1.872,4.043,4.183s-1.803,4.183-4.043,4.183
		S230.581,223.721,230.581,221.41z M237.476,221.41c0-1.82-1.138-3.133-2.853-3.133c-1.716,0-2.853,1.33-2.853,3.133
		c0,1.838,1.207,3.133,2.853,3.133C236.338,224.543,237.476,223.248,237.476,221.41z"/>
	<path fill="#EDE6D6" d="M241.746,225.418h-1.154v-7.98h1.154v0.524c0,0.123,0,0.245-0.018,0.368
		c0.473-0.665,1.19-1.086,2.171-1.086v1.086c-1.295,0.087-2.118,1.138-2.153,2.52V225.418z"/>
	<path fill="#EDE6D6" d="M252.753,221.76h-6.493c0.14,1.803,1.452,2.748,2.905,2.748c1.295,0,2.188-0.63,2.678-1.365l0.857,0.718
		c-0.735,0.963-1.68,1.732-3.535,1.732c-2.485,0-4.096-1.872-4.096-4.183s1.575-4.183,3.956-4.183c2.468,0,3.728,1.854,3.728,3.92
		V221.76z M246.278,220.832h5.25c-0.175-1.54-1.015-2.555-2.502-2.555C247.643,218.277,246.488,219.17,246.278,220.832z"/>
	<path fill="#EDE6D6" d="M259.858,229.793v-12.355h1.154v0.524c0,0.228-0.018,0.455-0.034,0.665
		c0.577-0.805,1.487-1.365,2.607-1.365c2.013,0,3.623,1.506,3.623,4.131s-1.61,4.2-3.623,4.2c-1.12,0-2.03-0.542-2.607-1.348
		c0.017,0.298,0.034,0.683,0.034,1.173v4.375H259.858z M263.48,224.561c1.33,0,2.556-1.277,2.556-3.168s-1.226-3.098-2.556-3.098
		c-1.575,0-2.468,1.225-2.468,3.133C261.012,223.335,261.905,224.561,263.48,224.561z"/>
	<path fill="#EDE6D6" d="M269.85,214.392c0.542,0,0.997,0.455,0.997,0.998c0,0.542-0.455,0.997-0.997,0.997
		c-0.543,0-0.998-0.455-0.998-0.997C268.852,214.847,269.307,214.392,269.85,214.392z M269.238,225.418v-7.98h1.225v7.98H269.238z"
		/>
	<path fill="#EDE6D6" d="M280,221.76h-6.493c0.14,1.803,1.452,2.748,2.905,2.748c1.295,0,2.188-0.63,2.678-1.365l0.857,0.718
		c-0.735,0.963-1.68,1.732-3.535,1.732c-2.485,0-4.096-1.872-4.096-4.183s1.575-4.183,3.956-4.183c2.468,0,3.728,1.854,3.728,3.92
		V221.76z M273.525,220.832h5.25c-0.175-1.54-1.015-2.555-2.502-2.555C274.89,218.277,273.735,219.17,273.525,220.832z"/>
	<path fill="#EDE6D6" d="M282.748,223.598c0.542,0,0.997,0.455,0.997,0.998c0,0.542-0.455,0.997-0.997,0.997
		c-0.543,0-0.998-0.455-0.998-0.997C281.75,224.053,282.205,223.598,282.748,223.598z"/>
</g>
<line fill="none" stroke="#549688" x1="109.344" y1="248.088" x2="227.636" y2="248.088"/>
<rect x="123.937" y="241.134" fill="#3D3D3C" width="89.667" height="13.908"/>
<g>
	<path fill="#A0CECB" d="M133.608,251.334h-0.803l-0.888-2.446c-0.132-0.36-0.216-0.672-0.216-0.744
		c-0.024,0.084-0.096,0.408-0.216,0.744l-0.888,2.446h-0.803l-3.07-8.396h0.887l2.435,6.681c0.108,0.3,0.192,0.647,0.192,0.647
		s0.072-0.348,0.18-0.647l0.875-2.482l-1.559-4.198h0.887l0.864,2.363c0.156,0.432,0.24,0.839,0.24,0.839s0.084-0.407,0.24-0.839
		l0.852-2.363h0.852l-1.535,4.198l0.924,2.482c0.108,0.3,0.18,0.611,0.192,0.636c0.012-0.061,0.096-0.36,0.192-0.636l2.387-6.681
		h0.851L133.608,251.334z"/>
	<path fill="#A0CECB" d="M141.672,251.334c-0.624,0-1.031-0.384-1.103-0.947c-0.384,0.527-1.043,1.067-2.219,1.067
		c-2.542,0-2.578-3.166,0.024-3.431c1.007-0.096,1.871,0.097,2.195,0.192v-0.372c0-0.863-0.6-1.415-1.523-1.415
		c-0.528,0-1.151,0.252-1.499,0.756l-0.636-0.492c0,0,0.66-1.031,2.135-1.031c1.427,0,2.291,0.863,2.291,2.183v2.375
		c0,0.204,0.132,0.336,0.335,0.336h0.108v0.779H141.672z M140.569,248.852c-0.264-0.061-1.211-0.24-2.111-0.145
		c-1.487,0.168-1.703,2.016,0,2.016C139.934,250.723,140.533,249.595,140.569,248.852z"/>
	<path fill="#A0CECB" d="M145.227,246.872c-0.132-0.264-0.408-0.432-0.792-0.432c-0.359,0-0.708,0.24-0.708,0.708
		c0,0.443,0.528,0.72,1.116,0.995c0.743,0.348,1.559,0.815,1.559,1.715c0,0.852-0.612,1.596-1.835,1.596
		c-0.84,0-1.655-0.432-2.063-1.212l0.72-0.335c0.288,0.539,0.815,0.852,1.343,0.852c0.671,0,1.007-0.385,1.007-0.84
		c0-0.444-0.42-0.768-0.959-1.008c-0.792-0.348-1.703-0.756-1.703-1.727c0-0.948,0.768-1.439,1.535-1.439
		c0.6,0,1.199,0.264,1.451,0.791L145.227,246.872z"/>
	<path fill="#A0CECB" d="M148.67,251.334h-0.792v-8.995h0.792v3.886c0,0.18-0.012,0.348-0.024,0.516
		c0.408-0.587,1.092-0.995,1.883-0.995c1.379,0,2.267,0.84,2.267,2.519v3.07h-0.804v-3.07c0-1.211-0.624-1.811-1.535-1.811
		c-1.055,0-1.751,0.803-1.787,1.751V251.334z"/>
	<path fill="#A0CECB" d="M154.899,243.778c0.372,0,0.684,0.312,0.684,0.684s-0.312,0.684-0.684,0.684
		c-0.372,0-0.684-0.312-0.684-0.684S154.527,243.778,154.899,243.778z M154.479,251.334v-5.469h0.84v5.469H154.479z"/>
	<path fill="#A0CECB" d="M161.917,251.334h-0.804v-3.07c0-1.211-0.624-1.811-1.535-1.811c-1.055,0-1.751,0.803-1.787,1.751v3.13
		h-0.792v-5.469h0.792v0.359c0,0.18-0.012,0.348-0.024,0.516c0.408-0.587,1.092-0.995,1.883-0.995c1.379,0,2.267,0.84,2.267,2.519
		V251.334z"/>
	<path fill="#A0CECB" d="M165.998,245.745c0.528,0,1.007,0.168,1.403,0.443l0.852-0.899l0.587,0.588l-0.887,0.84
		c0.312,0.407,0.492,0.911,0.492,1.463c0,1.355-1.08,2.435-2.447,2.435c-0.516,0-0.996-0.144-1.379-0.407
		c-0.552,0.527-0.552,1.595,0.252,1.595c0.552,0,1.367-0.312,2.171-0.312c1.079,0,1.763,0.695,1.763,1.571
		c0,1.055-0.948,1.967-2.735,1.967c-2.435,0-3.406-1.655-2.327-2.951c-0.516-0.623-0.264-1.715,0.444-2.219
		c-0.408-0.432-0.66-1.031-0.66-1.679C163.527,246.837,164.618,245.745,165.998,245.745z M164.21,252.401
		c-0.563,0.708,0.06,1.847,1.859,1.847c1.367,0,1.919-0.6,1.919-1.187c0-0.42-0.276-0.864-0.947-0.864
		c-0.648,0-1.319,0.324-2.171,0.324C164.606,252.521,164.39,252.474,164.21,252.401z M165.998,249.955
		c0.947,0,1.619-0.768,1.619-1.775c0-1.02-0.672-1.775-1.619-1.775c-0.972,0-1.655,0.768-1.655,1.775
		C164.342,249.199,165.086,249.955,165.998,249.955z"/>
	<path fill="#A0CECB" d="M170.523,251.334v-4.749h-0.96v-0.72h0.96v-2.327h0.839v2.327h0.96v0.72h-0.96v4.749H170.523z"/>
	<path fill="#A0CECB" d="M173.163,248.588c0-1.584,1.235-2.867,2.771-2.867s2.771,1.283,2.771,2.867
		c0,1.583-1.235,2.866-2.771,2.866S173.163,250.171,173.163,248.588z M177.888,248.588c0-1.248-0.779-2.147-1.955-2.147
		s-1.955,0.912-1.955,2.147c0,1.259,0.828,2.146,1.955,2.146C177.109,250.734,177.888,249.847,177.888,248.588z"/>
	<path fill="#A0CECB" d="M184.944,251.334h-0.804v-3.07c0-1.211-0.623-1.811-1.535-1.811c-1.055,0-1.751,0.803-1.787,1.751v3.13
		h-0.791v-5.469h0.791v0.359c0,0.18-0.012,0.348-0.023,0.516c0.407-0.587,1.092-0.995,1.883-0.995c1.379,0,2.267,0.84,2.267,2.519
		V251.334z"/>
	<path fill="#A0CECB" d="M190.585,242.938h2.051c2.663,0,4.33,1.176,4.33,4.078c0,2.758-1.643,4.317-3.97,4.317h-2.411V242.938z
		 M192.997,250.614c1.812,0,3.118-1.331,3.118-3.61c0-2.494-1.331-3.346-3.479-3.346h-1.211v6.956H192.997z"/>
	<path fill="#A0CECB" d="M198.542,250.087c0.371,0,0.684,0.312,0.684,0.684c0,0.371-0.312,0.684-0.684,0.684
		c-0.372,0-0.684-0.312-0.684-0.684C197.859,250.398,198.17,250.087,198.542,250.087z"/>
	<path fill="#A0CECB" d="M204.839,251.454c-2.387,0-4.316-1.931-4.316-4.317c0-2.375,1.93-4.318,4.316-4.318
		c1.188,0,2.268,0.48,3.047,1.26l-0.588,0.6c-0.623-0.624-1.499-1.067-2.459-1.067c-1.93,0-3.478,1.607-3.478,3.526
		c0,1.931,1.548,3.525,3.478,3.525c0.973,0,1.848-0.443,2.483-1.091l0.587,0.6C207.13,250.962,206.04,251.454,204.839,251.454z"/>
	<path fill="#A0CECB" d="M209.894,250.087c0.371,0,0.684,0.312,0.684,0.684c0,0.371-0.312,0.684-0.684,0.684
		c-0.372,0-0.684-0.312-0.684-0.684C209.21,250.398,209.522,250.087,209.894,250.087z"/>
</g>
<g>
	<path fill="#549688" d="M98.412,112.121c-1.226,5.212-2.999,7.842-5.848,8.918c-1.574,4.534-3.598,13.217-5.397,30.891
		c-3.823,37.115-17.467,45.568-29.462,45.568c-12.219,0-17.317-7.224-17.317-14.293c0-6.686,2.165-10.672,11.995-10.216v3.914
		c-3.298,0-5.397,3.382-5.397,7.07c0,4.457,3.074,9.375,10.945,9.375c8.246,0,17.767-5.303,21.665-41.419
		c1.574-14.907,4.198-24.128,6.897-29.815h-1.649c-11.02,0-22.265-4.688-37.783-4.688c-14.394,0-21.666,11.757-21.666,22.439
		c0,8.913,5.023,17.135,15.293,17.135c10.345,0,14.019-7.684,14.019-16.443c0-1.384,0.925-2.767,0.775-4.227l5.747-1.229
		c0.15,1.537,0.3,3.074,0.3,4.611c0,11.219-5.248,21.132-20.766,21.132c-15.143,0-22.565-10.604-22.565-21.977
		c0-13.063,9.896-27.203,29.087-27.203c16.193,0,29.087,6.224,38.458,6.224c1.274,0,2.324-0.077,3.298-0.153
		c2.624-3.612,5.098-4.688,6.747-5.072L98.412,112.121z"/>
	<path fill="#549688" d="M113.857,160.921c0.45,0,1.099,0.614,1.099,1.076c-3.749,10.066-6.497,18.058-13.843,18.058
		c-6.522,0-9.221-6.147-9.221-13.371c0-10.45,5.623-23.206,14.019-23.206c3.748,0,5.622-0.234,5.622,3.301
		c0,5.456-4.498,15.833-13.344,17.293c0,0.385,0,0.769,0,1.152c0,4.611,1.274,8.299,4.723,8.299
		C107.335,173.522,111.008,168.759,113.857,160.921z M102.05,158.635c3.068-2.824,4.46-6.339,4.46-8.472
		c0-1.153-0.45-1.922-1.2-1.922c-2.689,0-5.264,5-6.468,10.523"/>
	<path fill="#549688" d="M135.297,160.921c0.45,0,1.1,0.614,1.1,1.076c-3.748,10.066-6.497,18.058-13.843,18.058
		c-6.522,0-9.221-6.147-9.221-13.371c0-10.45,5.623-23.206,14.019-23.206c3.748,0,5.622-0.234,5.622,3.301
		c0,5.456-4.498,15.833-13.344,17.293c0,0.385,0,0.769,0,1.152c0,4.611,1.274,8.299,4.723,8.299
		C128.776,173.522,132.449,168.759,135.297,160.921z M124.357,157.774c2.465-2.649,3.594-5.691,3.594-7.611
		c0-1.153-0.45-1.922-1.2-1.922c-2.612,0-5.117,4.719-6.362,10.053"/>
	<path fill="#549688" d="M131.55,179.286c0,0,0-3.915,0-3.915c0.423-2.524,1.657-5.774,2.774-8.841
		c1.499-8.684,9.22-20.359,10.12-26.199l0.617,1.625l-1.441,7.438c2.398-3.688,5.397-5.993,8.546-5.993
		c2.624,0,4.349-0.232,4.349,3.456c0,7.146-4.873,18.291-4.873,24.592c0,2.229,0.824,2.612,1.499,2.612
		c1.949,0,4.423-4.303,7.722-13.14c0.45,0,1.1,0.614,1.1,1.076c-3.299,8.76-5.673,17.674-11.819,17.674
		c-2.624,0-5.098-4.152-5.098-8.84c0-8.299,4.872-14.828,4.872-20.361c0-0.846-0.375-1.537-1.199-1.537
		c-1.874,0-5.173,3.612-7.646,14.447l-2.999,15.906H131.55z"/>
	<path fill="#549688" d="M186.35,157.851c0,0.078,0,2.078,0,2.078c-2.849,7.529-6.887,14.477-10.935,18.779l-1.734,10.491
		c-1.274,7.761-4.123,12.447-8.921,12.447c-3.374,0-5.772-3.998-5.772-8.07c0-5.303,4.798-6.683,10.346-12.139l0.899-6.148
		c-1.425,2.075-3.148,4.382-5.173,4.382c-3.974,0-5.322-3.689-5.322-8.838c0-3.15,0.524-6.839,1.199-10.527
		c1.874-9.989,9.745-19.975,9.745-19.975v3.914c0,0-1.499,6.379-3.373,16.215c-0.825,4.303-1.499,7.914-1.499,10.988
		c0,2.229,0.824,2.612,1.499,2.612c3.748,0,12.97-26.583,14.469-33.729v3.914c-0.9,3.382-3.374,17.674-5.548,29.893
		c3.148-3.688,6.072-7.992,8.021-13.217C184.926,160.921,186.35,157.39,186.35,157.851z M164.685,198.574
		c1.274,0,1.874-1.537,2.324-3.92l1.5-8.728c-3.148,3.381-5.323,6.884-5.323,10.572
		C163.186,197.959,163.935,198.574,164.685,198.574z"/>
	<path fill="#549688" d="M243.326,123.882c-5.023,9.067-6.223,23.745-8.021,37.653c10.195-1.383,17.018-13.217,17.018-24.667
		c0-11.296-6.673-22.361-23.314-22.361c-17.168,0-25.114,13.371-25.114,24.82c0,8.683,4.573,16.291,13.044,16.291
		c1.125,0,3.374,2.54,4.349,2.31v3.915c-1.425,0.538-2.999,0.769-4.648,0.769c-12.294,0-18.892-10.298-18.892-21.747
		c0-14.216,10.195-30.199,32.161-30.199c20.54,0,29.236,12.986,29.236,26.28c0,13.832-9.37,27.972-24.438,28.586
		c-2.399,16.905-6.372,31.659-20.092,31.659c-8.695,0-13.493-5.148-13.493-12.986c0-6.225,4.198-12.371,11.77-12.68v6.302
		c-3.898,0.461-6.372,4.304-6.372,7.838c0,4.995,3.673,6.762,7.871,6.762c19.267,0,16.493-49.022,28.938-72.458V123.882z"/>
	<path fill="#549688" d="M268.517,144.245c-2.624,11.988-4.798,20.902-4.798,27.203c0,2.229,0.824,2.612,1.499,2.612
		c1.949,0,4.424-4.303,7.722-13.14c0.375,0,2.1,0.537,2.1,0.998v0.078c-3.299,8.76-5.923,17.674-12.07,17.674
		c-4.048,0-5.397-3.843-5.397-9.145c0-8.529,9.671-24.662,10.945-30.195V144.245z M263.047,133.564c0-2.766-0.027-5.397,5.245-3.766
		c2.363,0.731,3.645-1.534,3.645,0.617c0,2.767-2.07,7.373-5.369,7.373C264.169,137.789,263.047,135.639,263.047,133.564z"/>
	<path fill="#549688" d="M294.38,160.921c0.45,0,2.099,0.614,2.099,1.076c-3.748,10.066-7.496,18.058-14.843,18.058
		c-6.522,0-9.221-6.147-9.221-13.371c0-10.45,5.622-23.206,14.019-23.206c3.748,0,5.698-0.492,5.698,3.043
		c0,5.456-4.574,16.091-13.42,17.551c0,0.385,0,0.769,0,1.152c0,4.611,1.274,8.299,4.723,8.299
		C287.858,173.522,291.532,168.759,294.38,160.921z M282.744,158.478c2.95-2.797,4.29-6.222,4.29-8.314
		c0-1.153-0.45-1.922-1.199-1.922c-2.662,0-5.212,4.897-6.431,10.354"/>
	<path fill="#549688" d="M296.706,171.448c0.975,1.69,1.874,2.305,3.298,2.305c1.875,0,2.924-1.383,2.924-4.148
		c0-4.765-2.174-9.375-3.823-14.832c-0.824,2.537-1.799,4.918-2.624,7.225c0,0-2.099-0.385-2.099-1v-0.076
		c0.975-2.613,2.399-6.07,3.823-9.76c-0.524-2.305-1.57-11.438-0.744-14.236c0.87-2.947,5.468-2.511,6.667-6.276l0.288,3.81
		c-0.601,4.149-1.638,7.943-2.537,11.324c0.225,6.455,7.571,14.447,7.571,23.053v0.308c1.424-2.382,5.848-11.062,5.848-11.062
		s0,2.542,0,3.004c-3.449,9.221-7.646,18.97-15.743,18.97c-5.119,0-6.372-5.99-7.422-9.141L296.706,171.448z"/>
</g>
<g>
	<g>
		<path fill="#F5F6F6" d="M98.412,112.206c-1.274,2.151-2.999,3.842-5.848,4.918c-1.574,4.534-3.598,13.217-5.397,30.891
			c-3.823,37.115-17.467,45.568-29.462,45.568c-12.219,0-17.317-7.224-17.317-14.293c0-6.686,4.498-13.217,11.77-13.294l0.225,6.993
			c-3.298,0-5.397,3.381-5.397,7.069c0,4.457,3.074,9.375,10.945,9.375c8.246,0,17.767-5.302,21.665-41.419
			c1.574-14.907,4.198-24.128,6.897-29.815h-1.649c-11.02,0-22.265-4.688-37.783-4.688c-14.394,0-21.666,11.757-21.666,22.438
			c0,8.914,5.023,17.136,15.293,17.136c10.345,0,14.019-7.685,14.019-16.445c0-1.383-0.075-2.766-0.225-4.227l6.747-1.229
			c0.15,1.537,0.3,3.074,0.3,4.611c0,11.22-5.248,21.132-20.766,21.132c-15.143,0-22.565-10.604-22.565-21.977
			c0-13.063,9.896-27.203,29.087-27.203c16.193,0,29.087,6.224,38.458,6.224c1.274,0,2.324-0.077,3.298-0.153
			c2.624-3.612,5.098-4.688,6.747-5.072L98.412,112.206z"/>
		<path fill="#F5F6F6" d="M113.857,157.005c0.45,0,2.099,0.615,2.099,1.076c-3.749,10.066-7.497,18.059-14.843,18.059
			c-6.522,0-9.221-6.147-9.221-13.371c0-10.45,5.623-23.207,14.019-23.207c3.748,0,5.622,2.768,5.622,6.302
			c0,5.456-4.498,12.833-13.344,14.293c0,0.384,0,0.769,0,1.152c0,4.61,1.274,8.3,4.723,8.3
			C107.335,169.608,111.008,164.844,113.857,157.005z M98.414,157.236c5.623-2.843,8.097-8.146,8.097-10.989
			c0-1.152-0.45-1.921-1.2-1.921C102.237,144.326,99.313,150.858,98.414,157.236z"/>
		<path fill="#F5F6F6" d="M135.297,157.005c0.45,0,2.1,0.615,2.1,1.076c-3.748,10.066-7.497,18.059-14.843,18.059
			c-6.522,0-9.221-6.147-9.221-13.371c0-10.45,5.623-23.207,14.019-23.207c3.748,0,5.622,2.768,5.622,6.302
			c0,5.456-4.498,12.833-13.344,14.293c0,0.384,0,0.769,0,1.152c0,4.61,1.274,8.3,4.723,8.3
			C128.776,169.608,132.449,164.844,135.297,157.005z M119.855,157.236c5.622-2.843,8.096-8.146,8.096-10.989
			c0-1.152-0.45-1.921-1.2-1.921C123.678,144.326,120.754,150.858,119.855,157.236z"/>
		<path fill="#F5F6F6" d="M131.55,175.371c0,0,0.675-6.993,2.774-12.756c1.499-8.684,2.773-16.444,3.674-22.284h6.446l-0.824,5.148
			c2.398-3.689,5.397-5.994,8.546-5.994c2.624,0,4.349,1.768,4.349,5.456c0,7.146-4.873,16.29-4.873,22.592
			c0,2.229,0.824,2.612,1.499,2.612c1.949,0,4.423-4.303,7.722-13.141c0.45,0,2.1,0.615,2.1,1.076
			c-3.299,8.76-6.673,17.674-12.819,17.674c-2.624,0-5.098-2.151-5.098-6.839c0-8.299,4.872-16.829,4.872-22.361
			c0-0.845-0.375-1.536-1.199-1.536c-1.874,0-5.173,3.611-7.646,14.445l-2.999,15.907H131.55z"/>
		<path fill="#F5F6F6" d="M186.35,158.005c0,0.076,0,0.076,0,0.076c-2.849,7.531-6.972,12.986-11.02,17.29l-1.649,9.913
			c-1.274,7.761-4.123,13.447-8.921,13.447c-3.374,0-5.772-1.998-5.772-6.07c0-5.303,4.798-9.683,10.346-15.139l0.899-5.148
			c-1.425,2.075-3.148,3.381-5.173,3.381c-3.974,0-5.322-3.688-5.322-8.836c0-3.151,0.524-6.84,1.199-10.528
			c1.874-9.989,3.373-16.06,3.373-16.06h6.372c0,0-1.499,6.377-3.373,16.213c-0.825,4.304-1.499,7.916-1.499,10.989
			c0,2.229,0.824,2.612,1.499,2.612c3.748,0,6.822-22.668,8.321-29.814h6.147c-0.9,3.381-3.374,17.674-5.548,29.892
			c3.148-3.688,6.072-7.991,8.021-13.218C184.926,157.005,186.35,157.544,186.35,158.005z M164.685,194.659
			c1.274,0,1.874-1.537,2.324-3.919l1.499-8.223c-3.148,3.381-5.322,6.378-5.322,10.066
			C163.186,194.044,163.935,194.659,164.685,194.659z"/>
		<path fill="#F5F6F6" d="M243.326,119.967c-5.023,9.067-6.223,23.745-8.021,37.653c10.195-1.383,17.018-13.217,17.018-24.667
			c0-11.296-6.673-22.361-23.314-22.361c-17.168,0-25.114,13.371-25.114,24.82c0,8.683,4.573,16.291,13.044,16.291
			c1.125,0,2.174-0.153,3.148-0.384l1.2,6.608c-1.425,0.538-2.999,0.769-4.648,0.769c-12.294,0-18.892-10.297-18.892-21.747
			c0-14.216,10.195-30.199,32.161-30.199c20.54,0,29.236,12.986,29.236,26.28c0,13.832-9.37,27.971-24.438,28.586
			c-2.399,16.905-6.372,31.659-20.092,31.659c-8.695,0-13.493-5.148-13.493-12.986c0-6.224,4.198-12.372,11.77-12.679v6.301
			c-3.898,0.461-6.372,4.303-6.372,7.838c0,4.995,3.673,7.761,7.871,7.761c19.267,0,9.671-48.487,22.115-71.925L243.326,119.967z"/>
		<path fill="#F5F6F6" d="M268.517,140.331c-2.624,11.987-4.798,20.9-4.798,27.202c0,2.229,0.824,2.612,1.499,2.612
			c1.949,0,4.424-4.303,7.722-13.141c0.375,0,2.1,0.539,2.1,1v0.076c-3.299,8.76-5.923,17.674-12.07,17.674
			c-4.048,0-5.397-3.842-5.397-9.145c0-8.529,3.299-20.747,4.573-26.279H268.517z M263.044,131.955c0-2.766,1.949-6.071,5.248-6.071
			c2.474,0,3.523,1.845,3.523,3.996c0,2.767-1.949,5.994-5.248,5.994C264.169,135.874,263.044,134.029,263.044,131.955z"/>
		<path fill="#F5F6F6" d="M294.38,157.005c0.45,0,2.099,0.615,2.099,1.076c-3.748,10.066-7.496,18.059-14.843,18.059
			c-6.522,0-9.221-6.147-9.221-13.371c0-10.45,5.622-23.207,14.019-23.207c3.748,0,5.622,2.768,5.622,6.302
			c0,5.456-4.498,12.833-13.344,14.293c0,0.384,0,0.769,0,1.152c0,4.61,1.274,8.3,4.723,8.3
			C287.858,169.608,291.532,164.844,294.38,157.005z M278.937,157.236c5.623-2.843,8.097-8.146,8.097-10.989
			c0-1.152-0.45-1.921-1.199-1.921C282.76,144.326,279.836,150.858,278.937,157.236z"/>
		<path fill="#F5F6F6" d="M296.706,167.533c0.975,1.69,1.874,2.306,3.298,2.306c1.875,0,2.924-1.384,2.924-4.15
			c0-4.764-2.174-9.375-3.823-14.83c-0.824,2.535-1.799,4.918-2.624,7.223c0,0-2.099-0.384-2.099-0.998v-0.078
			c0.975-2.611,2.399-6.07,3.823-9.758c-0.524-2.306-0.899-4.765-0.899-7.377c0-3.074,0.524-6.456,1.724-10.221l5.099,0.999
			c-0.601,4.149-1.35,7.838-2.249,11.219c0.225,6.455,7.571,14.446,7.571,23.054v0.307c1.424-2.382,2.624-5.225,3.748-8.223
			c0.45,0,2.1,0.615,2.1,1.076c-3.449,9.222-7.646,18.059-15.743,18.059c-3.523,0-6.372-2.074-7.422-5.226L296.706,167.533z"/>
	</g>
</g>
</svg>
