<?xml version="1.0" encoding="utf-8"?>
<!-- Generator: Adobe Illustrator 14.0.0, SVG Export Plug-In . SVG Version: 6.00 Build 43363)  -->
<!DOCTYPE svg PUBLIC "-//W3C//DTD SVG 1.1//EN" "http://www.w3.org/Graphics/SVG/1.1/DTD/svg11.dtd">
<svg version="1.1" id="Layer_1" xmlns="http://www.w3.org/2000/svg" xmlns:xlink="http://www.w3.org/1999/xlink" x="0px" y="0px"
	 width="33.75px" height="70.232px" viewBox="0 0 33.75 70.232" enable-background="new 0 0 33.75 70.232" xml:space="preserve">
<circle fill="#D3BD88" cx="17.241" cy="16.741" r="14.741"/>
<path fill="#E5CF93" d="M17.241,0C8.01,0,0.5,7.51,0.5,16.741s7.51,16.741,16.741,16.741c9.231,0,16.742-7.51,16.742-16.741
	S26.473,0,17.241,0z M17.241,31.482C9.1,31.482,2.5,24.883,2.5,16.741C2.5,8.6,9.1,2,17.241,2c8.142,0,14.742,6.6,14.742,14.741
	C31.983,24.883,25.383,31.482,17.241,31.482z"/>
<circle fill="#539689" cx="17.241" cy="53.491" r="14.741"/>
<path fill="#A0CECB" d="M17.241,36.75C8.01,36.75,0.5,44.26,0.5,53.491s7.51,16.741,16.741,16.741
	c9.231,0,16.742-7.51,16.742-16.741S26.473,36.75,17.241,36.75z M17.241,68.232C9.1,68.232,2.5,61.633,2.5,53.491
	c0-8.141,6.6-14.741,14.741-14.741c8.142,0,14.742,6.6,14.742,14.741C31.983,61.633,25.383,68.232,17.241,68.232z"/>
<path fill="#A59060" d="M13.799,22.403l0.007,0.007c0,0,0.88-2.751,1.796-3.842c0,0-3.271,1.403-4.361,1.419l0.016,0.015
	c-0.206,0.04-0.391,0.125-0.534,0.27c-0.523,0.528-0.321,1.577,0.453,2.342c0.773,0.765,1.824,0.957,2.347,0.428
	C13.689,22.875,13.774,22.651,13.799,22.403z"/>
<path fill="#A59060" d="M23.138,19.97l0.007-0.008c0,0-2.751-0.88-3.842-1.795c0,0,1.403,3.27,1.42,4.36l0.014-0.016
	c0.04,0.205,0.125,0.391,0.27,0.534c0.528,0.523,1.577,0.321,2.342-0.453c0.765-0.773,0.957-1.824,0.428-2.347
	C23.609,20.08,23.385,19.994,23.138,19.97z"/>
<path fill="#A59060" d="M20.71,11.105l-0.007-0.008c0,0-0.88,2.751-1.796,3.842c0,0,3.271-1.402,4.361-1.419l-0.016-0.015
	c0.206-0.04,0.391-0.125,0.534-0.271c0.523-0.528,0.321-1.576-0.453-2.342c-0.773-0.765-1.824-0.957-2.347-0.428
	C20.82,10.633,20.734,10.857,20.71,11.105z"/>
<path fill="#A59060" d="M11.371,13.539l-0.007,0.008c0,0,2.751,0.88,3.842,1.795c0,0-1.403-3.27-1.42-4.36l-0.014,0.016
	c-0.04-0.205-0.125-0.391-0.27-0.533c-0.528-0.523-1.577-0.321-2.342,0.453c-0.765,0.772-0.957,1.823-0.428,2.347
	C10.899,13.428,11.124,13.514,11.371,13.539z"/>
</svg>
